<svg width="20" height="18" viewBox="0 0 20 18" fill="none" xmlns="http://www.w3.org/2000/svg">
<path d="M9.395 17.9101L9.388 17.9071L9.366 17.8951C9.23729 17.8243 9.10961 17.7516 8.983 17.6771C7.46081 16.7726 6.03827 15.71 4.739 14.5071C2.438 12.3601 0 9.17407 0 5.25007C0 2.32207 2.464 7.09512e-05 5.438 7.09512e-05C6.26475 -0.00397847 7.08178 0.178412 7.82832 0.533676C8.57486 0.888941 9.2317 1.40794 9.75 2.05207C10.2684 1.40781 10.9254 0.888729 11.6721 0.533459C12.4189 0.178188 13.2361 -0.00412905 14.063 7.09512e-05C17.036 7.09512e-05 19.5 2.32207 19.5 5.25007C19.5 9.17507 17.062 12.3611 14.761 14.5061C13.4617 15.709 12.0392 16.7716 10.517 17.6761C10.3904 17.7509 10.2627 17.8239 10.134 17.8951L10.112 17.9071L10.105 17.9111L10.102 17.9121C9.99356 17.9695 9.87271 17.9995 9.75 17.9995C9.62729 17.9995 9.50644 17.9695 9.398 17.9121L9.395 17.9101Z" fill="white"/>
</svg>
